<?xml version="1.0" encoding="iso-8859-1"?>
<!-- Generator: Adobe Illustrator 19.0.0, SVG Export Plug-In . SVG Version: 6.00 Build 0)  -->
<svg version="1.1" id="Capa_1" xmlns="http://www.w3.org/2000/svg" xmlns:xlink="http://www.w3.org/1999/xlink" x="0px" y="0px"
	 viewBox="0 0 496 496" style="enable-background:new 0 0 496 496;" xml:space="preserve">
<g>
	<circle style="fill:#FFCB57;" cx="152" cy="344" r="144"/>
	<circle style="fill:#FFCB57;" cx="376" cy="120" r="112"/>
</g>
<g>
	<rect x="128" y="32" style="fill:#E56565;" width="16" height="16"/>
	<rect x="32" y="80" style="fill:#E56565;" width="16" height="16"/>
	<rect x="96" y="136" style="fill:#E56565;" width="16" height="16"/>
	<rect x="200" y="160" style="fill:#E56565;" width="16" height="16"/>
</g>
<g>
	<path style="fill:#3F3A34;" d="M152,192C68.184,192,0,260.184,0,344s68.184,152,152,152s152-68.184,152-152S235.816,192,152,192z
		 M189.024,213.256C183.912,224.408,172.688,232,160,232c-14.136,0-26.024-9.28-30.248-22.016c7.256-1.2,14.656-1.984,22.248-1.984
		C164.848,208,177.232,209.912,189.024,213.256z M44.056,426.4c3.768-1.52,7.776-2.4,11.944-2.4c17.648,0,32,14.352,32,32
		c0,2.544-0.376,5.024-0.952,7.448C70.216,454.264,55.64,441.536,44.056,426.4z M176.232,477.712C177.4,465.56,187.552,456,200,456
		c6.544,0,12.712,2.728,17.176,7.312C204.608,470.208,190.808,475.08,176.232,477.712z M230.824,454.616
		C223.296,445.504,212.016,440,200,440c-21.912,0-39.736,17.728-39.96,39.592c-2.672,0.16-5.328,0.408-8.04,0.408
		c-17.728,0-34.632-3.512-50.176-9.712c1.44-4.6,2.176-9.384,2.176-14.288c0-26.472-21.528-48-48-48
		c-7.408,0-14.528,1.744-21.032,4.928C23,392.688,16,369.176,16,344c0-61.784,41.448-113.984,97.968-130.488
		C119.824,233.416,138.224,248,160,248c19.576,0,36.896-12.008,44.24-29.536C253.368,238.984,288,287.512,288,344
		C288,389.6,265.368,429.928,230.824,454.616z"/>
	<path style="fill:#3F3A34;" d="M376,240c66.168,0,120-53.832,120-120S442.168,0,376,0S256,53.832,256,120S309.832,240,376,240z
		 M416,215.976v-7.072c0-7.056-1.664-14.128-4.824-20.448l-8.04-16.064c-2.048-4.112-3.136-8.704-3.136-13.296v-7.472
		c0-7.936,3.088-15.4,8.704-21.016c2.592-2.592,5.6-4.656,8.944-6.144l59.92-26.632c1.56,7.152,2.432,14.56,2.432,22.168
		C480,163.176,453.544,200.272,416,215.976z M472.864,82.416l-61.712,27.424c-5.144,2.288-9.776,5.464-13.76,9.456
		c-8.64,8.632-13.392,20.12-13.392,32.328v7.472c0,7.056,1.664,14.128,4.824,20.448l8.04,16.064
		c2.048,4.112,3.136,8.704,3.136,13.296v12.192c-7.72,1.832-15.728,2.904-24,2.904s-16.28-1.072-24-2.904V206.12
		c0-2.76,0.656-5.528,1.888-8l10.528-21.072c2.344-4.688,3.584-9.928,3.584-15.16C368,143.2,352.8,128,334.112,128
		c-6.336,0-12.384-3.024-16.184-8.088l-8.392-11.184c-5.976-7.968-15.48-12.72-25.44-12.72h-9.192c2.008-8.44,5-16.488,8.928-24
		h2.264c18.12,0,35.168,9.656,44.488,25.184c5.48,9.136,15.504,14.808,26.16,14.808c9.544,0,18.672-4.56,24.408-12.2l10.984-14.648
		C394.552,81.928,398.408,80,402.44,80h3.528c8.816,0,17.032-3.952,22.544-10.832l19.336-24.176
		C458.72,55.408,467.304,68.144,472.864,82.416z M376,16c22.128,0,42.616,7,59.496,18.824l-19.48,24.344
		C413.56,62.24,409.896,64,405.968,64h-3.528c-9.04,0-17.672,4.32-23.104,11.544l-10.984,14.648
		c-2.72,3.64-7.064,5.808-11.608,5.808c-5.064,0-9.832-2.696-12.448-7.048c-10.856-18.096-29.744-30.032-50.488-32.44
		C312.848,31.92,342.568,16,376,16z M272.408,112h11.696c4.944,0,9.664,2.36,12.64,6.32l8.392,11.192
		c6.808,9.072,17.64,14.488,28.976,14.488c9.864,0,17.888,8.024,17.888,17.888c0,2.76-0.656,5.528-1.888,8l-10.528,21.072
		c-2.344,4.68-3.584,9.92-3.584,15.152v9.864c-37.544-15.704-64-52.8-64-95.976C272,117.296,272.2,114.648,272.408,112z"/>
	<path style="fill:#3F3A34;" d="M264,304v-16c-17.648,0-32,14.352-32,32s14.352,32,32,32v-16c-8.824,0-16-7.176-16-16
		S255.176,304,264,304z"/>
	<path style="fill:#3F3A34;" d="M232,376c-13.232,0-24,10.768-24,24h16c0-4.408,3.592-8,8-8s8,3.592,8,8h16
		C256,386.768,245.232,376,232,376z"/>
	<path style="fill:#3F3A34;" d="M40,312v16c8.824,0,16,7.176,16,16s-7.176,16-16,16v16c17.648,0,32-14.352,32-32S57.648,312,40,312z
		"/>
	<path style="fill:#3F3A34;" d="M160,320c-13.232,0-24,10.768-24,24s10.768,24,24,24v-16c-4.408,0-8-3.592-8-8s3.592-8,8-8
		s8,3.592,8,8h16C184,330.768,173.232,320,160,320z"/>
	<rect x="96" y="264" style="fill:#3F3A34;" width="16" height="16"/>
	<rect x="200" y="280" style="fill:#3F3A34;" width="16" height="16"/>
	<rect x="128" y="408" style="fill:#3F3A34;" width="16" height="16"/>
	<path style="fill:#3F3A34;" d="M64,48c13.232,0,24-10.768,24-24S77.232,0,64,0S40,10.768,40,24S50.768,48,64,48z M64,16
		c4.408,0,8,3.592,8,8s-3.592,8-8,8s-8-3.592-8-8S59.592,16,64,16z"/>
	<path style="fill:#3F3A34;" d="M184,112c13.232,0,24-10.768,24-24s-10.768-24-24-24s-24,10.768-24,24S170.768,112,184,112z M184,80
		c4.408,0,8,3.592,8,8s-3.592,8-8,8s-8-3.592-8-8S179.592,80,184,80z"/>
	<path style="fill:#3F3A34;" d="M24,208c13.232,0,24-10.768,24-24s-10.768-24-24-24S0,170.768,0,184S10.768,208,24,208z M24,176
		c4.408,0,8,3.592,8,8s-3.592,8-8,8s-8-3.592-8-8S19.592,176,24,176z"/>
	<path style="fill:#3F3A34;" d="M472,264c-13.232,0-24,10.768-24,24s10.768,24,24,24s24-10.768,24-24S485.232,264,472,264z M472,296
		c-4.408,0-8-3.592-8-8s3.592-8,8-8s8,3.592,8,8S476.408,296,472,296z"/>
	<path style="fill:#3F3A34;" d="M328,448c-13.232,0-24,10.768-24,24s10.768,24,24,24s24-10.768,24-24S341.232,448,328,448z M328,480
		c-4.408,0-8-3.592-8-8s3.592-8,8-8s8,3.592,8,8S332.408,480,328,480z"/>
	<path style="fill:#3F3A34;" d="M376,336c-13.232,0-24,10.768-24,24s10.768,24,24,24s24-10.768,24-24S389.232,336,376,336z M376,368
		c-4.408,0-8-3.592-8-8s3.592-8,8-8s8,3.592,8,8S380.408,368,376,368z"/>
</g>
<g>
	<rect x="328" y="272" style="fill:#E56565;" width="16" height="16"/>
	<rect x="440" y="344" style="fill:#E56565;" width="16" height="16"/>
	<rect x="480" y="480" style="fill:#E56565;" width="16" height="16"/>
	<rect x="400" y="432" style="fill:#E56565;" width="16" height="16"/>
</g>
<g>
</g>
<g>
</g>
<g>
</g>
<g>
</g>
<g>
</g>
<g>
</g>
<g>
</g>
<g>
</g>
<g>
</g>
<g>
</g>
<g>
</g>
<g>
</g>
<g>
</g>
<g>
</g>
<g>
</g>
</svg>
